<svg xmlns="http://www.w3.org/2000/svg" width="1920" height="900" viewBox="0 0 1920 900"><g><g><path fill="#fff" d="M0 900V471h822.966l325.445 351.637-48.672-108.017c4.315-1.583 11.62-4.238 17.882-6.388-8.215 13.653-.847 16.437 1.379 17.768 6.43 3.847 12.46 6.141 17.39 8.006l6.063 13.436c-2.62-.038-6.714-.284-8.453 1.558-2.706 2.867-2.835 7.945 2 12 2.332 1.956 4.615 2.801 7 4a97.94 97.94 0 0 0 9.2 4.04l22.8 50.525 161.71-358.343-95.093-104.986A39.166 39.166 0 0 0 1245 354c2.354-1.729 3.017-6.26 7-8 4.804-2.098 1.05-5.64 2.935-7.098 1.092-.844 1.994-1.925 2.719-3.014l87.62 96.794 46.149-169.317L1454 0h466v900zm1201.591-77.363l325.847-352.073H1360.23zm212.714-545.962l-46.02 168.293h162.22z"/></g></g></svg>